<?xml version="1.0" encoding="iso-8859-1"?>
<!-- Generator: Adobe Illustrator 19.0.0, SVG Export Plug-In . SVG Version: 6.00 Build 0)  -->
<svg version="1.1" id="Capa_1" xmlns="http://www.w3.org/2000/svg" xmlns:xlink="http://www.w3.org/1999/xlink" x="0px" y="0px"
	 viewBox="0 0 512 512" style="enable-background:new 0 0 512 512;" xml:space="preserve">
<g>
	<g>
		<path d="M0,327.667v97h512v-97H0z M124,394.667H30v-37h94V394.667z M425,394.667H154v-37h271V394.667z M482,394.667h-27v-37h27
			V394.667z"/>
	</g>
</g>
<g>
	<g>
		<path d="M440.333,253h-58c-8.639,0-15.666-7.027-15.666-15.666c0-8.639,7.027-15.667,15.666-15.667H444
			c24.63,0,44.667-20.037,44.667-44.667c0-24.629-20.037-44.666-44.667-44.666h-62.333c-8.271,0-15-6.728-15-15v-30h-30v30
			c0,24.813,20.186,45,45,45H444c8.088,0,14.667,6.579,14.667,14.666c0,8.087-6.579,14.667-14.667,14.667h-61.667
			c-25.181,0-45.666,20.486-45.666,45.667c0,25.181,20.485,45.666,45.666,45.666h58c10.109,0,18.334,8.225,18.334,18.334v4.333h30
			v-4.333C488.667,274.682,466.984,253,440.333,253z"/>
	</g>
</g>
<g>
</g>
<g>
</g>
<g>
</g>
<g>
</g>
<g>
</g>
<g>
</g>
<g>
</g>
<g>
</g>
<g>
</g>
<g>
</g>
<g>
</g>
<g>
</g>
<g>
</g>
<g>
</g>
<g>
</g>
</svg>
